# xmcd
#
# Track frame offsets:
#	150
#	12000
#	22885
#	36450
#	46337
#	59997
#	72250
#	84742
#	102775
#	112650
#	125787
#	139610
#	151857
#	162182
#	175922
#	186277
#	198845
#	211747
#	224397
#	236500
#
# Disc length: 3284
#
# Revision: 5
# Processed by: cddbd v1.5.1PL0 Copyright (c) Steve Scherf et al.
# Submitted via: CDex 1.40Beta9
# Normalized: r3:DSETVAR1,TSWAP
#
DISCID=120cd214
DTITLE=Various Artist - Big Country Clasics volume 9
DYEAR=1900
DGENRE=Country
TTITLE0=Johnny Cash - Folsom Prison Blues
TTITLE1=Jim Reeves - I Guess Im' Crazy
TTITLE2=Patsy Cline - She's got you
TTITLE3=Eddie Arnold - What's  he doin' in my world
TTITLE4=Jimmy Dean - Big Bad John
TTITLE5=Jack Green - All The Time
TTITLE6=Sonny Jones - Running bear
TTITLE7=Bobby Goldsboro - Honey
TTITLE8=Buck Owens - I Don't Care
TTITLE9=Marty Robbins - Devil Woman
TTITLE10=Charley Pride - All I have to offer you is me
TTITLE11=Tammy Wynette - Stand By Your man
TTITLE12=David Houston - With one exception
TTITLE13=Ray Price - City lights
TTITLE14=Leroy Van Dyke - Walk on By
TTITLE15=Bill Anderson - Still
TTITLE16=Conway Twitty - Next in Line
TTITLE17=Hank Snow - I've been everywhere
TTITLE18=Glenn Campbell - Galveston
TTITLE19=Buck Owens - I got a tiger by the tail
EXTD=ID3G: 2
EXTT0=Johnny Cash
EXTT1=Jim Reeves
EXTT2=Patsy Cline
EXTT3=Eddy Arnold
EXTT4=Jimmy Dean
EXTT5=Jack Greene
EXTT6=Sonny Jones
EXTT7=Bobby Goldsboro
EXTT8=Buck Owens
EXTT9=Marty Robins
EXTT10=Charley Pride
EXTT11=Tammy Wynette
EXTT12=David Houston
EXTT13=Ray Price
EXTT14=Leroy Van Dyke
EXTT15=Bill Anderson
EXTT16=Conway Twitty
EXTT17=Hank Snow
EXTT18=Glen Campbell
EXTT19=Buck Owens
PLAYORDER=
